# xmcd CD database file
#
# Track frame offsets:
#	150
#	10980
#	20323
#	30322
#	41328
#	52080
#	61680
#	76368
#	87198
#	100830
#	111390
#	122653
#	132733
#	144396
#	158651
#	170570
#	181000
#	194007
#	208293
#	219572
#	239939
#	254525
#	269798
#	283126
#	296979
#	315483
#	327774
#	342297
#
# Disc length: 4760 seconds
#
# Revision: 0
# Processed by: cddbd v1.5.2PL0 Copyright (c) Steve Scherf et al.
# Submitted via: CDex 1.51
#
DISCID=b012961c
DTITLE=Chet Atkins - The essential
DYEAR=1900
DGENRE=Country
TTITLE0=Chet Atkins - Mr. Sandman
TTITLE1=Chet Atkins - The Poor People of Paris
TTITLE2=Chet Atkins - Boo Boo Stick Beat
TTITLE3=Chet Atkins - Alley Cat
TTITLE4=Chet Atkins - Travelin'
TTITLE5=Chet Atkins - Yakety Axe
TTITLE6=Chet Atkins - Yesterday
TTITLE7=Chet Atkins - Blue Angel
TTITLE8=Chet Atkins - Theme from "Zorba the Greek"
TTITLE9=Chet Atkins - Snowbird
TTITLE10=Chet Atkins - Steeplechase Lane
TTITLE11=Chet Atkins - Jerry's Breakdown
TTITLE12=Chet Atkins - Black Mountain Rag
TTITLE13=Chet Atkins - Fiddlin' Around
TTITLE14=Chet Atkins - Somewhere My Love
TTITLE15=Chet Atkins - The Entertainer
TTITLE16=Chet Atkins - Londonderry Air
TTITLE17=Chet Atkins - On My Way to Canaan's Land
TTITLE18=Chet Atkins - Tennessee Rag
TTITLE19=Chet Atkins - Chet's Medley
TTITLE20=Chet Atkins - heart of glass
TTITLE21=Chet Atkins - i'll see you in my dreams
TTITLE22=Chet Atkins - it don't mean a thing
TTITLE23=Chet Atkins - on the road again
TTITLE24=Chet Atkins - orange blossom special
TTITLE25=Chet Atkins - take five
TTITLE26=Chet Atkins - tenderly
TTITLE27=Chet Atkins - vincent
EXTD=
EXTT0=
EXTT1=
EXTT2=
EXTT3=
EXTT4=
EXTT5=
EXTT6=
EXTT7=
EXTT8=
EXTT9=
EXTT10=
EXTT11=
EXTT12=
EXTT13=
EXTT14=
EXTT15=
EXTT16=
EXTT17=
EXTT18=
EXTT19=
EXTT20=
EXTT21=
EXTT22=
EXTT23=
EXTT24=
EXTT25=
EXTT26=
EXTT27=
PLAYORDER=
